<?xml version="1.0" standalone="no"?>
<!DOCTYPE svg PUBLIC "-//W3C//DTD SVG 20010904//EN"
 "http://www.w3.org/TR/2001/REC-SVG-20010904/DTD/svg10.dtd">
<svg version="1.0" xmlns="http://www.w3.org/2000/svg"
 width="512.000000pt" height="512.000000pt" viewBox="0 0 512.000000 512.000000"
 preserveAspectRatio="xMidYMid meet">
<metadata>
Created by potrace 1.11, written by Peter Selinger 2001-2013
</metadata>
<g transform="translate(0.000000,512.000000) scale(0.100000,-0.100000)"
fill="#000000" stroke="none">
<path d="M2369 5076 c-2 -2 -31 -6 -64 -9 -358 -36 -691 -144 -1015 -331 -58
-33 -106 -64 -108 -68 -2 -4 -8 -8 -14 -8 -6 0 -23 -10 -38 -22 -16 -13 -50
-39 -77 -58 -26 -19 -50 -37 -53 -40 -3 -3 -34 -29 -70 -59 -87 -72 -251 -239
-328 -335 -186 -228 -334 -496 -425 -767 -33 -98 -79 -267 -91 -334 -3 -16 -7
-43 -10 -60 -23 -123 -31 -228 -31 -420 0 -195 6 -284 31 -435 3 -19 6 -36 6
-37 0 -2 6 -31 15 -65 8 -35 16 -70 18 -78 41 -190 128 -406 269 -665 14 -26
149 -228 156 -235 3 -3 27 -33 53 -67 46 -60 242 -264 322 -334 186 -163 483
-341 735 -440 99 -38 239 -82 300 -94 8 -2 33 -8 55 -13 22 -6 60 -14 85 -17
24 -4 47 -8 50 -10 3 -2 34 -6 70 -10 36 -4 69 -9 74 -12 15 -10 436 -11 511
-3 339 39 587 109 875 248 330 159 656 426 883 722 31 41 61 80 65 85 21 26
103 157 139 220 37 66 133 261 133 270 0 2 5 16 11 32 6 15 10 30 11 33 0 3 3
10 8 15 7 9 63 180 75 230 18 72 55 258 60 300 3 28 10 84 15 125 8 73 6 465
-3 505 -2 11 -8 43 -11 70 -17 122 -41 238 -67 330 -27 91 -80 247 -89 260 -3
6 -15 33 -25 60 -47 127 -195 381 -309 530 -236 309 -564 579 -893 735 -48 23
-96 46 -106 51 -48 25 -245 94 -347 122 -79 22 -228 52 -310 63 -25 3 -56 8
-70 11 -28 5 -466 14 -471 9z"/>
</g>
</svg>
